<svg width="128" height="38" viewBox="0 0 128 38" fill="none" xmlns="http://www.w3.org/2000/svg">
<path d="M0.162834 12.3559L5.67988 22.5953C6.06225 23.3071 6.99086 23.8546 7.7556 23.8546H19.0082C19.7729 23.8546 20.1007 23.3071 19.7183 22.5953L14.1466 12.3011C13.7643 11.5893 12.8356 11.0417 12.0709 11.0417H0.818324H0.7637C0.10821 11.0965 -0.219535 11.6441 0.162834 12.3559Z" fill="white"/>
<path d="M21.52 24.2377L24.8521 30.3156C25.0706 30.7536 25.6168 31.0822 26.1084 31.0822L32.7726 30.9726C33.2096 30.9726 33.4281 30.6441 33.2096 30.2061L29.8775 24.1282C29.659 23.6901 29.1128 23.3616 28.6211 23.3616L21.9024 23.4163C21.4654 23.5258 21.2469 23.8544 21.52 24.2377Z" fill="white"/>
<path d="M21.5219 1.24047L14.8577 9.61813C14.4208 10.1657 14.3661 11.2061 14.7485 11.9179L20.3202 22.1025C20.7025 22.8143 21.358 22.9238 21.8496 22.3215L28.5684 13.9438C29.0054 13.3963 29.06 12.3559 28.6777 11.6441L23.0514 1.45949C22.8329 1.0762 22.5051 0.857178 22.1774 0.857178C21.9589 0.857178 21.7404 0.96669 21.5219 1.24047Z" fill="white"/>
<path d="M19.9912 24.3473L16.0036 29.3301C15.7305 29.6586 15.6759 30.261 15.949 30.699L19.281 36.7769C19.4995 37.215 19.9365 37.2697 20.2097 36.8864L24.1972 31.9036C24.4703 31.5751 24.525 30.9728 24.2518 30.5347L20.9198 24.4568C20.8105 24.2378 20.592 24.0735 20.4282 24.1283C20.2097 24.1283 20.1004 24.183 19.9912 24.3473Z" fill="white"/>
<path d="M95.3743 9.72754H93.1347V26.0996H95.3743V9.72754Z" fill="white"/>
<path d="M53.0936 14.9294C49.8708 14.9294 47.3035 17.4482 47.3035 20.5693V31.0277H49.5431V20.5693C49.5431 18.6528 51.1272 17.0649 53.1483 17.0649C55.1147 17.0649 56.7534 18.6528 56.7534 20.5693C56.7534 22.4858 55.1693 24.0737 53.1483 24.0737C52.0558 24.0737 51.0179 23.5809 50.3624 22.8143V25.5521C51.1818 25.9901 52.1104 26.2092 53.0936 26.2092C56.3165 26.2092 58.8838 23.6904 58.8838 20.5693C58.8838 17.4482 56.3165 14.9294 53.0936 14.9294Z" fill="white"/>
<path d="M65.7114 14.9294C62.4886 14.9294 59.9213 17.4482 59.9213 20.5693V31.0277H62.1609V20.5693C62.1609 18.6528 63.745 17.0649 65.7661 17.0649C67.7325 17.0649 69.3713 18.6528 69.3713 20.5693C69.3713 22.4858 67.7872 24.0737 65.7661 24.0737C64.6736 24.0737 63.6357 23.5809 62.9802 22.8143V25.5521C63.7996 25.9901 64.7282 26.2092 65.7114 26.2092C68.9343 26.2092 71.5016 23.6904 71.5016 20.5693C71.5016 17.4482 68.8796 14.9294 65.7114 14.9294Z" fill="white"/>
<path d="M40.1478 9.72778C36.925 9.72778 34.3577 12.2466 34.3577 15.3676V26.0998H36.5973V15.4224C36.5973 13.5059 38.1814 11.9728 40.1478 11.9728C42.1143 11.9728 43.6984 13.5059 43.6984 15.4224V16.627H37.9629V18.8173H43.6984V26.1546H45.938V15.4224C45.938 12.2466 43.316 9.72778 40.1478 9.72778Z" fill="white"/>
<path d="M85.6509 15.4223C85.6509 13.5059 87.235 11.9727 89.2014 11.9727H92.0419V9.78247H89.2014C85.9786 9.78247 83.4113 12.3012 83.4113 15.4223V26.1545H85.6509V19.0362H91.8234V16.846H85.6509V15.4223Z" fill="white"/>
<path d="M104.714 14.9841V21.8286C104.659 23.1975 103.512 24.2926 102.092 24.2926C100.672 24.2926 99.5244 23.1975 99.4698 21.8286V14.9841H97.2302V21.8286C97.2302 24.0189 98.8143 25.8806 100.945 26.3734V31.0276H103.184V26.3734C105.315 25.8806 106.899 24.0736 106.899 21.8286V14.9841H104.714Z" fill="white"/>
<path d="M117.278 21.4454C117.059 22.3215 116.458 23.0881 115.584 23.5809C113.891 24.5665 111.706 23.9642 110.723 22.3215C109.74 20.6788 110.34 18.5433 112.034 17.5577C113.399 16.7911 115.093 17.0102 116.185 17.9958L111.16 20.8431L112.252 22.7048L119.244 18.7624C119.135 18.4338 118.971 18.1053 118.807 17.7767C117.223 15.0937 113.672 14.1629 110.887 15.696C108.101 17.2839 107.172 20.7336 108.756 23.4166C110.34 26.0997 113.891 27.0305 116.677 25.4973C118.261 24.6212 119.244 23.0881 119.517 21.4454H117.278Z" fill="white"/>
<path d="M126.564 14.9294C125.199 14.9294 123.997 15.3675 123.014 16.1341V14.9842H120.774V26.1544H123.014V20.5693C123.014 18.6528 124.598 17.1197 126.564 17.1197H127.001V14.9294H126.564Z" fill="white"/>
<path d="M79.969 20.9525L74.3973 18.4337C74.1242 18.3242 74.015 17.9957 74.1242 17.7219C74.2335 17.5029 74.3973 17.3934 74.6158 17.3934H80.9522V15.2031H74.6158C73.578 15.2031 72.5401 15.8054 72.1031 16.791C71.4476 18.1599 72.0485 19.7479 73.4141 20.4049L78.9858 22.9237C79.2589 23.0332 79.3681 23.3618 79.2589 23.6355C79.1496 23.8546 78.9858 23.9641 78.7673 23.9641H72.267V26.1543H78.7673C79.8051 26.1543 80.843 25.552 81.28 24.5664C81.9901 23.1975 81.3892 21.6096 79.969 20.9525Z" fill="white"/>
</svg>
